<svg width="438" height="134" viewBox="0 0 438 134" fill="none" xmlns="http://www.w3.org/2000/svg">
<path d="M27.954 27.832C23.602 27.832 19.986 29.304 17.106 32.248C14.226 35.192 12.786 39.416 12.786 44.92C12.786 50.36 14.162 54.552 16.914 57.496C19.73 60.44 23.41 61.912 27.954 61.912C30.642 61.912 32.882 61.56 34.674 60.856C36.466 60.088 38.066 59.224 39.474 58.264C40.178 58.648 40.754 59.128 41.202 59.704C41.65 60.28 41.874 60.984 41.874 61.816C41.874 63.608 40.53 65.144 37.842 66.424C35.218 67.64 31.922 68.248 27.954 68.248C23.538 68.248 19.57 67.416 16.05 65.752C12.594 64.024 9.87399 61.432 7.88999 57.976C5.90599 54.52 4.91399 50.168 4.91399 44.92C4.91399 39.736 5.93799 35.416 7.98599 31.96C10.034 28.44 12.786 25.816 16.242 24.088C19.762 22.296 23.602 21.4 27.762 21.4C31.73 21.4 34.994 22.072 37.554 23.416C40.178 24.76 41.49 26.296 41.49 28.024C41.49 28.792 41.266 29.464 40.818 30.04C40.37 30.616 39.794 31.064 39.09 31.384C37.682 30.424 36.114 29.592 34.386 28.888C32.722 28.184 30.578 27.832 27.954 27.832ZM195.796 27.832C191.444 27.832 187.828 29.304 184.948 32.248C182.068 35.192 180.628 39.416 180.628 44.92C180.628 50.36 182.004 54.552 184.756 57.496C187.572 60.44 191.252 61.912 195.796 61.912C198.484 61.912 200.724 61.56 202.516 60.856C204.308 60.088 205.908 59.224 207.316 58.264C208.02 58.648 208.596 59.128 209.044 59.704C209.492 60.28 209.716 60.984 209.716 61.816C209.716 63.608 208.372 65.144 205.684 66.424C203.06 67.64 199.764 68.248 195.796 68.248C191.38 68.248 187.412 67.416 183.892 65.752C180.436 64.024 177.716 61.432 175.732 57.976C173.748 54.52 172.756 50.168 172.756 44.92C172.756 39.736 173.78 35.416 175.828 31.96C177.876 28.44 180.628 25.816 184.084 24.088C187.604 22.296 191.444 21.4 195.604 21.4C199.572 21.4 202.836 22.072 205.396 23.416C208.02 24.76 209.332 26.296 209.332 28.024C209.332 28.792 209.108 29.464 208.66 30.04C208.212 30.616 207.636 31.064 206.932 31.384C205.524 30.424 203.956 29.592 202.228 28.888C200.564 28.184 198.42 27.832 195.796 27.832ZM226.184 8.632C226.184 7.288 226.664 6.168 227.624 5.272C228.584 4.312 229.768 3.832 231.176 3.832C232.648 3.832 233.832 4.312 234.728 5.272C235.624 6.168 236.072 7.288 236.072 8.632C236.072 9.976 235.624 11.128 234.728 12.088C233.832 12.984 232.648 13.432 231.176 13.432C229.768 13.432 228.584 12.984 227.624 12.088C226.664 11.128 226.184 9.976 226.184 8.632ZM227.336 41.656H235.016V66.808C234.696 66.936 234.216 67.064 233.576 67.192C232.936 67.384 232.232 67.48 231.464 67.48C230.12 67.48 229.096 67.224 228.392 66.712C227.688 66.136 227.336 65.24 227.336 64.024V41.656ZM235.016 45.4H227.336V22.84C227.656 22.712 228.136 22.584 228.776 22.456C229.48 22.264 230.216 22.168 230.984 22.168C232.328 22.168 233.32 22.456 233.96 23.032C234.664 23.544 235.016 24.44 235.016 25.72V45.4ZM287.068 55.192C287.068 59.288 285.564 62.488 282.556 64.792C279.548 67.096 275.196 68.248 269.5 68.248C264.636 68.248 260.668 67.512 257.596 66.04C254.524 64.504 252.988 62.84 252.988 61.048C252.988 60.28 253.18 59.544 253.564 58.84C254.012 58.072 254.652 57.464 255.484 57.016C257.212 58.232 259.228 59.352 261.532 60.376C263.836 61.4 266.46 61.912 269.404 61.912C276.06 61.912 279.388 59.672 279.388 55.192C279.388 53.336 278.812 51.832 277.66 50.68C276.572 49.464 274.94 48.6 272.764 48.088L264.796 45.976C260.892 45.016 258.044 43.544 256.252 41.56C254.46 39.512 253.564 36.984 253.564 33.976C253.564 30.584 254.94 27.64 257.692 25.144C260.444 22.648 264.636 21.4 270.268 21.4C273.276 21.4 275.9 21.72 278.14 22.36C280.38 22.936 282.108 23.736 283.324 24.76C284.604 25.72 285.244 26.776 285.244 27.928C285.244 28.76 285.02 29.496 284.572 30.136C284.188 30.776 283.644 31.256 282.94 31.576C282.172 31.064 281.18 30.52 279.964 29.944C278.812 29.304 277.436 28.792 275.836 28.408C274.236 27.96 272.476 27.736 270.556 27.736C267.74 27.736 265.468 28.28 263.74 29.368C262.012 30.456 261.148 31.992 261.148 33.976C261.148 35.384 261.628 36.632 262.588 37.72C263.612 38.744 265.212 39.512 267.388 40.024L274.012 41.656C278.364 42.68 281.628 44.312 283.804 46.552C285.98 48.728 287.068 51.608 287.068 55.192ZM303.798 8.632C303.798 7.288 304.278 6.168 305.238 5.272C306.198 4.312 307.382 3.832 308.79 3.832C310.262 3.832 311.446 4.312 312.342 5.272C313.238 6.168 313.686 7.288 313.686 8.632C313.686 9.976 313.238 11.128 312.342 12.088C311.446 12.984 310.262 13.432 308.79 13.432C307.382 13.432 306.198 12.984 305.238 12.088C304.278 11.128 303.798 9.976 303.798 8.632ZM304.95 41.656H312.63V66.808C312.31 66.936 311.83 67.064 311.19 67.192C310.55 67.384 309.846 67.48 309.078 67.48C307.734 67.48 306.71 67.224 306.006 66.712C305.302 66.136 304.95 65.24 304.95 64.024V41.656ZM312.63 45.4H304.95V22.84C305.27 22.712 305.75 22.584 306.39 22.456C307.094 22.264 307.83 22.168 308.598 22.168C309.942 22.168 310.934 22.456 311.574 23.032C312.278 23.544 312.63 24.44 312.63 25.72V45.4ZM374.57 44.824C374.57 49.56 373.674 53.688 371.882 57.208C370.09 60.728 367.562 63.448 364.298 65.368C361.034 67.288 357.194 68.248 352.778 68.248C348.362 68.248 344.49 67.288 341.162 65.368C337.898 63.448 335.37 60.728 333.578 57.208C331.786 53.688 330.89 49.56 330.89 44.824C330.89 40.024 331.786 35.896 333.578 32.44C335.434 28.92 337.994 26.2 341.258 24.28C344.586 22.36 348.426 21.4 352.778 21.4C357.13 21.4 360.938 22.36 364.202 24.28C367.466 26.2 369.994 28.92 371.786 32.44C373.642 35.896 374.57 40.024 374.57 44.824ZM352.778 27.736C348.49 27.736 345.066 29.272 342.506 32.344C340.01 35.352 338.762 39.512 338.762 44.824C338.762 50.2 339.978 54.392 342.41 57.4C344.906 60.408 348.362 61.912 352.778 61.912C357.13 61.912 360.522 60.408 362.954 57.4C365.45 54.328 366.698 50.136 366.698 44.824C366.698 39.512 365.45 35.352 362.954 32.344C360.522 29.272 357.13 27.736 352.778 27.736ZM430.609 37.72V47.512H422.929V38.104C422.929 34.52 421.905 31.896 419.857 30.232C417.873 28.568 415.185 27.736 411.793 27.736C409.233 27.736 406.961 28.056 404.977 28.696C402.993 29.336 401.297 30.072 399.889 30.904V47.512H392.209V31.288C392.209 29.944 392.465 28.856 392.977 28.024C393.553 27.128 394.513 26.264 395.857 25.432C397.521 24.472 399.729 23.576 402.481 22.744C405.233 21.848 408.337 21.4 411.793 21.4C417.617 21.4 422.193 22.744 425.521 25.432C428.913 28.056 430.609 32.152 430.609 37.72ZM392.209 42.232H399.889V66.808C399.569 66.936 399.089 67.064 398.449 67.192C397.809 67.384 397.105 67.48 396.337 67.48C394.993 67.48 393.969 67.224 393.265 66.712C392.561 66.136 392.209 65.24 392.209 64.024V42.232ZM422.929 42.232H430.609V66.808C430.289 66.936 429.777 67.064 429.073 67.192C428.433 67.384 427.761 67.48 427.057 67.48C425.649 67.48 424.593 67.224 423.889 66.712C423.249 66.136 422.929 65.24 422.929 64.024V42.232Z" fill="#757A83"/>
<path d="M99.0727 44.824C99.0727 49.56 98.1767 53.688 96.3847 57.208C94.5927 60.728 92.0647 63.448 88.8007 65.368C85.5367 67.288 81.6967 68.248 77.2807 68.248C72.8647 68.248 68.9927 67.288 65.6647 65.368C62.4007 63.448 59.8727 60.728 58.0807 57.208C56.2887 53.688 55.3927 49.56 55.3927 44.824C55.3927 40.024 56.2887 35.896 58.0807 32.44C59.9367 28.92 62.4967 26.2 65.7607 24.28C69.0887 22.36 72.9287 21.4 77.2807 21.4C81.6327 21.4 85.4407 22.36 88.7047 24.28C91.9687 26.2 94.4967 28.92 96.2887 32.44C98.1447 35.896 99.0727 40.024 99.0727 44.824ZM77.2807 27.736C72.9927 27.736 69.5687 29.272 67.0087 32.344C64.5127 35.352 63.2647 39.512 63.2647 44.824C63.2647 50.2 64.4807 54.392 66.9127 57.4C69.4087 60.408 72.8647 61.912 77.2807 61.912C81.6327 61.912 85.0247 60.408 87.4567 57.4C89.9527 54.328 91.2007 50.136 91.2007 44.824C91.2007 39.512 89.9527 35.352 87.4567 32.344C85.0247 29.272 81.6327 27.736 77.2807 27.736ZM155.111 37.72V47.512H147.431V38.104C147.431 34.52 146.407 31.896 144.359 30.232C142.375 28.568 139.687 27.736 136.295 27.736C133.735 27.736 131.463 28.056 129.479 28.696C127.495 29.336 125.799 30.072 124.391 30.904V47.512H116.711V31.288C116.711 29.944 116.967 28.856 117.479 28.024C118.055 27.128 119.015 26.264 120.359 25.432C122.023 24.472 124.231 23.576 126.983 22.744C129.735 21.848 132.839 21.4 136.295 21.4C142.119 21.4 146.695 22.744 150.023 25.432C153.415 28.056 155.111 32.152 155.111 37.72ZM116.711 42.232H124.391V66.808C124.071 66.936 123.591 67.064 122.951 67.192C122.311 67.384 121.607 67.48 120.839 67.48C119.495 67.48 118.471 67.224 117.767 66.712C117.063 66.136 116.711 65.24 116.711 64.024V42.232ZM147.431 42.232H155.111V66.808C154.791 66.936 154.279 67.064 153.575 67.192C152.935 67.384 152.263 67.48 151.559 67.48C150.151 67.48 149.095 67.224 148.391 66.712C147.751 66.136 147.431 65.24 147.431 64.024V42.232Z" fill="#32AFA9"/>
<path d="M109.999 109.016C109.999 109.224 109.927 109.416 109.783 109.592C109.655 109.752 109.503 109.872 109.327 109.952C108.927 109.664 108.439 109.392 107.863 109.136C107.303 108.88 106.575 108.752 105.679 108.752C104.703 108.752 103.823 108.976 103.039 109.424C102.271 109.872 101.655 110.544 101.191 111.44C100.743 112.32 100.519 113.416 100.519 114.728C100.519 116.696 100.999 118.176 101.959 119.168C102.935 120.16 104.199 120.656 105.751 120.656C106.583 120.656 107.311 120.536 107.935 120.296C108.559 120.056 109.071 119.784 109.471 119.48C109.631 119.544 109.783 119.664 109.927 119.84C110.071 120 110.143 120.192 110.143 120.416C110.143 120.576 110.095 120.736 109.999 120.896C109.919 121.04 109.775 121.184 109.567 121.328C109.199 121.584 108.695 121.808 108.055 122C107.415 122.208 106.599 122.312 105.607 122.312C104.279 122.312 103.071 122.032 101.983 121.472C100.911 120.896 100.063 120.048 99.439 118.928C98.815 117.808 98.503 116.408 98.503 114.728C98.503 113.048 98.823 111.64 99.463 110.504C100.119 109.368 100.975 108.52 102.031 107.96C103.103 107.384 104.271 107.096 105.535 107.096C106.415 107.096 107.191 107.192 107.863 107.384C108.535 107.576 109.055 107.824 109.423 108.128C109.807 108.416 109.999 108.712 109.999 109.016ZM121.492 122.312C120.292 122.312 119.268 122.096 118.42 121.664C117.572 121.216 116.924 120.592 116.476 119.792C116.044 118.976 115.828 118.032 115.828 116.96V114.992H117.772V116.792C117.772 118.072 118.124 119.04 118.828 119.696C119.548 120.336 120.436 120.656 121.492 120.656C122.548 120.656 123.428 120.336 124.132 119.696C124.852 119.04 125.212 118.072 125.212 116.792V114.992H127.18V116.96C127.18 118.032 126.956 118.976 126.508 119.792C126.076 120.592 125.436 121.216 124.588 121.664C123.74 122.096 122.708 122.312 121.492 122.312ZM117.772 115.976H115.828V107.456C115.908 107.424 116.028 107.392 116.188 107.36C116.364 107.312 116.548 107.288 116.74 107.288C117.092 107.288 117.348 107.36 117.508 107.504C117.684 107.632 117.772 107.856 117.772 108.176V115.976ZM127.18 115.976H125.212V107.456C125.292 107.424 125.412 107.392 125.572 107.36C125.748 107.312 125.932 107.288 126.124 107.288C126.476 107.288 126.74 107.36 126.916 107.504C127.092 107.632 127.18 107.856 127.18 108.176V115.976ZM137.966 109.064L137.846 107.408H143.438C143.486 107.472 143.534 107.576 143.582 107.72C143.63 107.864 143.654 108.016 143.654 108.176C143.654 108.432 143.59 108.648 143.462 108.824C143.334 108.984 143.15 109.064 142.91 109.064H137.966ZM138.014 107.408L138.134 109.064H132.518C132.47 108.984 132.422 108.872 132.374 108.728C132.326 108.584 132.302 108.432 132.302 108.272C132.302 108 132.366 107.792 132.494 107.648C132.622 107.488 132.806 107.408 133.046 107.408H138.014ZM137.006 108.416H138.95V121.952C138.87 121.984 138.742 122.016 138.566 122.048C138.406 122.096 138.238 122.12 138.062 122.12C137.71 122.12 137.446 122.048 137.27 121.904C137.094 121.76 137.006 121.536 137.006 121.232V108.416ZM160.134 109.064L160.014 107.408H165.606C165.654 107.472 165.702 107.576 165.75 107.72C165.798 107.864 165.822 108.016 165.822 108.176C165.822 108.432 165.758 108.648 165.63 108.824C165.502 108.984 165.318 109.064 165.078 109.064H160.134ZM160.182 107.408L160.302 109.064H154.686C154.638 108.984 154.59 108.872 154.542 108.728C154.494 108.584 154.47 108.432 154.47 108.272C154.47 108 154.534 107.792 154.662 107.648C154.79 107.488 154.974 107.408 155.214 107.408H160.182ZM159.174 108.416H161.118V121.952C161.038 121.984 160.91 122.016 160.734 122.048C160.574 122.096 160.406 122.12 160.23 122.12C159.878 122.12 159.614 122.048 159.438 121.904C159.262 121.76 159.174 121.536 159.174 121.232V108.416ZM170.968 113.312H172.936V121.952C172.84 121.984 172.712 122.016 172.552 122.048C172.392 122.096 172.216 122.12 172.024 122.12C171.672 122.12 171.408 122.048 171.232 121.904C171.056 121.76 170.968 121.536 170.968 121.232V113.312ZM172.936 114.92H170.968V107.456C171.048 107.424 171.168 107.392 171.328 107.36C171.504 107.312 171.688 107.288 171.88 107.288C172.232 107.288 172.496 107.36 172.672 107.504C172.848 107.632 172.936 107.856 172.936 108.176V114.92ZM180.424 113.312H182.392V121.952C182.296 121.984 182.168 122.016 182.008 122.048C181.848 122.096 181.672 122.12 181.48 122.12C181.128 122.12 180.864 122.048 180.688 121.904C180.512 121.76 180.424 121.536 180.424 121.232V113.312ZM182.392 114.92H180.424V107.456C180.504 107.424 180.624 107.392 180.784 107.36C180.96 107.312 181.144 107.288 181.336 107.288C181.688 107.288 181.952 107.36 182.128 107.504C182.304 107.632 182.392 107.856 182.392 108.176V114.92ZM181.456 115.424H172.144V113.792H181.456V115.424ZM189.071 113.216H191.015V121.808C190.951 121.824 190.831 121.864 190.655 121.928C190.479 121.976 190.303 122 190.127 122C189.807 122 189.551 121.904 189.359 121.712C189.167 121.504 189.071 121.248 189.071 120.944V113.216ZM191.015 116.048L189.071 116.024V108.464C189.071 108.144 189.167 107.888 189.359 107.696C189.551 107.504 189.807 107.408 190.127 107.408C190.303 107.408 190.479 107.432 190.655 107.48C190.831 107.528 190.951 107.568 191.015 107.6V116.048ZM190.127 115.328V113.696H197.351C197.399 113.76 197.447 113.864 197.495 114.008C197.543 114.152 197.567 114.304 197.567 114.464C197.567 114.72 197.503 114.928 197.375 115.088C197.247 115.248 197.063 115.328 196.823 115.328H190.127ZM190.127 122V120.368H198.215C198.263 120.432 198.311 120.536 198.359 120.68C198.407 120.808 198.431 120.96 198.431 121.136C198.431 121.392 198.367 121.6 198.239 121.76C198.111 121.92 197.927 122 197.687 122H190.127ZM190.127 109.064V107.408H198.095C198.143 107.472 198.191 107.576 198.239 107.72C198.287 107.864 198.311 108.016 198.311 108.176C198.311 108.432 198.247 108.648 198.119 108.824C197.991 108.984 197.807 109.064 197.567 109.064H190.127ZM211.426 109.064L213.058 108.92C213.122 109.416 213.178 110 213.226 110.672C213.274 111.344 213.306 112.04 213.322 112.76C213.354 113.464 213.37 114.136 213.37 114.776V121.952C213.29 121.984 213.162 122.016 212.986 122.048C212.826 122.096 212.658 122.12 212.482 122.12C212.13 122.12 211.866 122.056 211.69 121.928C211.514 121.784 211.426 121.56 211.426 121.256V109.064ZM222.994 120.344L221.338 120.488C221.178 119.144 221.082 117.776 221.05 116.384C221.034 114.976 221.026 113.616 221.026 112.304V107.456C221.122 107.424 221.25 107.392 221.41 107.36C221.57 107.312 221.746 107.288 221.938 107.288C222.29 107.288 222.554 107.36 222.73 107.504C222.906 107.632 222.994 107.848 222.994 108.152V120.344ZM222.994 119.624V121.736C222.85 121.848 222.666 121.944 222.442 122.024C222.218 122.104 221.97 122.144 221.698 122.144C221.314 122.144 220.986 122.072 220.714 121.928C220.442 121.768 220.194 121.488 219.97 121.088L215.41 113.408C215.17 112.976 214.906 112.504 214.618 111.992C214.33 111.464 214.058 110.968 213.802 110.504C213.546 110.024 213.346 109.632 213.202 109.328L211.426 109.784V107.696C211.554 107.568 211.73 107.464 211.954 107.384C212.194 107.304 212.45 107.264 212.722 107.264C213.106 107.264 213.434 107.344 213.706 107.504C213.978 107.648 214.226 107.92 214.45 108.32L219.034 116C219.29 116.432 219.554 116.912 219.826 117.44C220.114 117.952 220.378 118.448 220.618 118.928C220.858 119.392 221.05 119.776 221.194 120.08L222.994 119.624ZM242.75 114.704C242.75 116.368 242.446 117.768 241.838 118.904C241.23 120.024 240.398 120.872 239.342 121.448C238.302 122.024 237.118 122.312 235.79 122.312C234.478 122.312 233.294 122.024 232.238 121.448C231.182 120.872 230.35 120.024 229.742 118.904C229.134 117.768 228.83 116.368 228.83 114.704C228.83 113.04 229.142 111.648 229.766 110.528C230.39 109.392 231.222 108.536 232.262 107.96C233.318 107.384 234.494 107.096 235.79 107.096C237.102 107.096 238.278 107.384 239.318 107.96C240.374 108.536 241.206 109.392 241.814 110.528C242.438 111.648 242.75 113.04 242.75 114.704ZM240.758 114.704C240.758 112.8 240.302 111.336 239.39 110.312C238.494 109.272 237.294 108.752 235.79 108.752C234.302 108.752 233.102 109.272 232.19 110.312C231.294 111.336 230.846 112.8 230.846 114.704C230.846 116.608 231.294 118.08 232.19 119.12C233.086 120.144 234.286 120.656 235.79 120.656C237.31 120.656 238.518 120.144 239.414 119.12C240.31 118.08 240.758 116.608 240.758 114.704ZM248.616 109.064L250.248 108.92C250.312 109.416 250.368 110 250.416 110.672C250.464 111.344 250.496 112.04 250.512 112.76C250.544 113.464 250.56 114.136 250.56 114.776V121.952C250.48 121.984 250.352 122.016 250.176 122.048C250.016 122.096 249.848 122.12 249.672 122.12C249.32 122.12 249.056 122.056 248.88 121.928C248.704 121.784 248.616 121.56 248.616 121.256V109.064ZM260.184 120.344L258.528 120.488C258.368 119.144 258.272 117.776 258.24 116.384C258.224 114.976 258.216 113.616 258.216 112.304V107.456C258.312 107.424 258.44 107.392 258.6 107.36C258.76 107.312 258.936 107.288 259.128 107.288C259.48 107.288 259.744 107.36 259.92 107.504C260.096 107.632 260.184 107.848 260.184 108.152V120.344ZM260.184 119.624V121.736C260.04 121.848 259.856 121.944 259.632 122.024C259.408 122.104 259.16 122.144 258.888 122.144C258.504 122.144 258.176 122.072 257.904 121.928C257.632 121.768 257.384 121.488 257.16 121.088L252.6 113.408C252.36 112.976 252.096 112.504 251.808 111.992C251.52 111.464 251.248 110.968 250.992 110.504C250.736 110.024 250.536 109.632 250.392 109.328L248.616 109.784V107.696C248.744 107.568 248.92 107.464 249.144 107.384C249.384 107.304 249.64 107.264 249.912 107.264C250.296 107.264 250.624 107.344 250.896 107.504C251.168 107.648 251.416 107.92 251.64 108.32L256.224 116C256.48 116.432 256.744 116.912 257.016 117.44C257.304 117.952 257.568 118.448 257.808 118.928C258.048 119.392 258.24 119.776 258.384 120.08L260.184 119.624ZM270.892 120.68C271.964 120.68 272.772 120.44 273.316 119.96C273.876 119.464 274.156 118.832 274.156 118.064C274.156 117.408 273.94 116.864 273.508 116.432C273.092 116 272.428 115.656 271.516 115.4L269.428 114.776C268.756 114.568 268.172 114.304 267.676 113.984C267.18 113.648 266.796 113.24 266.524 112.76C266.268 112.264 266.14 111.688 266.14 111.032C266.14 109.8 266.588 108.84 267.484 108.152C268.38 107.448 269.572 107.096 271.06 107.096C271.924 107.096 272.692 107.192 273.364 107.384C274.052 107.56 274.588 107.792 274.972 108.08C275.372 108.368 275.572 108.672 275.572 108.992C275.572 109.2 275.516 109.392 275.404 109.568C275.292 109.728 275.148 109.856 274.972 109.952C274.572 109.632 274.028 109.352 273.34 109.112C272.668 108.872 271.932 108.752 271.132 108.752C270.204 108.752 269.468 108.96 268.924 109.376C268.38 109.776 268.108 110.328 268.108 111.032C268.108 111.592 268.3 112.048 268.684 112.4C269.084 112.752 269.724 113.056 270.604 113.312L272.068 113.744C273.332 114.096 274.324 114.608 275.044 115.28C275.78 115.952 276.148 116.88 276.148 118.064C276.148 119.328 275.684 120.352 274.756 121.136C273.844 121.92 272.556 122.312 270.892 122.312C269.916 122.312 269.06 122.208 268.324 122C267.604 121.776 267.036 121.504 266.62 121.184C266.22 120.848 266.02 120.52 266.02 120.2C266.02 119.928 266.1 119.704 266.26 119.528C266.436 119.336 266.636 119.2 266.86 119.12C267.228 119.472 267.748 119.824 268.42 120.176C269.092 120.512 269.916 120.68 270.892 120.68ZM281.823 113.216H283.767V121.808C283.703 121.824 283.583 121.864 283.407 121.928C283.231 121.976 283.055 122 282.879 122C282.559 122 282.303 121.904 282.111 121.712C281.919 121.504 281.823 121.248 281.823 120.944V113.216ZM283.767 116.048L281.823 116.024V108.464C281.823 108.144 281.919 107.888 282.111 107.696C282.303 107.504 282.559 107.408 282.879 107.408C283.055 107.408 283.231 107.432 283.407 107.48C283.583 107.528 283.703 107.568 283.767 107.6V116.048ZM282.879 115.328V113.696H290.103C290.151 113.76 290.199 113.864 290.247 114.008C290.295 114.152 290.319 114.304 290.319 114.464C290.319 114.72 290.255 114.928 290.127 115.088C289.999 115.248 289.815 115.328 289.575 115.328H282.879ZM282.879 122V120.368H290.967C291.015 120.432 291.063 120.536 291.111 120.68C291.159 120.808 291.183 120.96 291.183 121.136C291.183 121.392 291.119 121.6 290.991 121.76C290.863 121.92 290.679 122 290.439 122H282.879ZM282.879 109.064V107.408H290.847C290.895 107.472 290.943 107.576 290.991 107.72C291.039 107.864 291.063 108.016 291.063 108.176C291.063 108.432 290.999 108.648 290.871 108.824C290.743 108.984 290.559 109.064 290.319 109.064H282.879ZM296.973 109.064L298.605 108.92C298.669 109.416 298.725 110 298.773 110.672C298.821 111.344 298.853 112.04 298.869 112.76C298.901 113.464 298.917 114.136 298.917 114.776V121.952C298.837 121.984 298.709 122.016 298.533 122.048C298.373 122.096 298.205 122.12 298.029 122.12C297.677 122.12 297.413 122.056 297.237 121.928C297.061 121.784 296.973 121.56 296.973 121.256V109.064ZM308.541 120.344L306.885 120.488C306.725 119.144 306.629 117.776 306.597 116.384C306.581 114.976 306.573 113.616 306.573 112.304V107.456C306.669 107.424 306.797 107.392 306.957 107.36C307.117 107.312 307.293 107.288 307.485 107.288C307.837 107.288 308.101 107.36 308.277 107.504C308.453 107.632 308.541 107.848 308.541 108.152V120.344ZM308.541 119.624V121.736C308.397 121.848 308.213 121.944 307.989 122.024C307.765 122.104 307.517 122.144 307.245 122.144C306.861 122.144 306.533 122.072 306.261 121.928C305.989 121.768 305.741 121.488 305.517 121.088L300.957 113.408C300.717 112.976 300.453 112.504 300.165 111.992C299.877 111.464 299.605 110.968 299.349 110.504C299.093 110.024 298.893 109.632 298.749 109.328L296.973 109.784V107.696C297.101 107.568 297.277 107.464 297.501 107.384C297.741 107.304 297.997 107.264 298.269 107.264C298.653 107.264 298.981 107.344 299.253 107.504C299.525 107.648 299.773 107.92 299.997 108.32L304.581 116C304.837 116.432 305.101 116.912 305.373 117.44C305.661 117.952 305.925 118.448 306.165 118.928C306.405 119.392 306.597 119.776 306.741 120.08L308.541 119.624ZM319.248 120.68C320.32 120.68 321.128 120.44 321.672 119.96C322.232 119.464 322.512 118.832 322.512 118.064C322.512 117.408 322.296 116.864 321.864 116.432C321.448 116 320.784 115.656 319.872 115.4L317.784 114.776C317.112 114.568 316.528 114.304 316.032 113.984C315.536 113.648 315.152 113.24 314.88 112.76C314.624 112.264 314.496 111.688 314.496 111.032C314.496 109.8 314.944 108.84 315.84 108.152C316.736 107.448 317.928 107.096 319.416 107.096C320.28 107.096 321.048 107.192 321.72 107.384C322.408 107.56 322.944 107.792 323.328 108.08C323.728 108.368 323.928 108.672 323.928 108.992C323.928 109.2 323.872 109.392 323.76 109.568C323.648 109.728 323.504 109.856 323.328 109.952C322.928 109.632 322.384 109.352 321.696 109.112C321.024 108.872 320.288 108.752 319.488 108.752C318.56 108.752 317.824 108.96 317.28 109.376C316.736 109.776 316.464 110.328 316.464 111.032C316.464 111.592 316.656 112.048 317.04 112.4C317.44 112.752 318.08 113.056 318.96 113.312L320.424 113.744C321.688 114.096 322.68 114.608 323.4 115.28C324.136 115.952 324.504 116.88 324.504 118.064C324.504 119.328 324.04 120.352 323.112 121.136C322.2 121.92 320.912 122.312 319.248 122.312C318.272 122.312 317.416 122.208 316.68 122C315.96 121.776 315.392 121.504 314.976 121.184C314.576 120.848 314.376 120.52 314.376 120.2C314.376 119.928 314.456 119.704 314.616 119.528C314.792 119.336 314.992 119.2 315.216 119.12C315.584 119.472 316.104 119.824 316.776 120.176C317.448 120.512 318.272 120.68 319.248 120.68ZM330.179 113.216H332.123V121.808C332.059 121.824 331.939 121.864 331.763 121.928C331.587 121.976 331.411 122 331.235 122C330.915 122 330.659 121.904 330.467 121.712C330.275 121.504 330.179 121.248 330.179 120.944V113.216ZM332.123 116.048L330.179 116.024V108.464C330.179 108.144 330.275 107.888 330.467 107.696C330.659 107.504 330.915 107.408 331.235 107.408C331.411 107.408 331.587 107.432 331.763 107.48C331.939 107.528 332.059 107.568 332.123 107.6V116.048ZM331.235 115.328V113.696H338.459C338.507 113.76 338.555 113.864 338.603 114.008C338.651 114.152 338.675 114.304 338.675 114.464C338.675 114.72 338.611 114.928 338.483 115.088C338.355 115.248 338.171 115.328 337.931 115.328H331.235ZM331.235 122V120.368H339.323C339.371 120.432 339.419 120.536 339.467 120.68C339.515 120.808 339.539 120.96 339.539 121.136C339.539 121.392 339.475 121.6 339.347 121.76C339.219 121.92 339.035 122 338.795 122H331.235ZM331.235 109.064V107.408H339.203C339.251 107.472 339.299 107.576 339.347 107.72C339.395 107.864 339.419 108.016 339.419 108.176C339.419 108.432 339.355 108.648 339.227 108.824C339.099 108.984 338.915 109.064 338.675 109.064H331.235Z" fill="#9CA3AF"/>
</svg>
